<svg id="visual" viewBox="0 0 900 300" width="900" height="300" xmlns="http://www.w3.org/2000/svg" xmlns:xlink="http://www.w3.org/1999/xlink" version="1.1"><rect x="0" y="0" width="900" height="300" fill="#2f112d"></rect><path d="M0 133L82 146L164 119L245 136L327 148L409 92L491 62L573 135L655 72L736 114L818 63L900 121L900 301L818 301L736 301L655 301L573 301L491 301L409 301L327 301L245 301L164 301L82 301L0 301Z" fill="#2f112d"></path><path d="M0 127L82 129L164 140L245 161L327 165L409 105L491 172L573 168L655 177L736 170L818 178L900 147L900 301L818 301L736 301L655 301L573 301L491 301L409 301L327 301L245 301L164 301L82 301L0 301Z" fill="#421033"></path><path d="M0 137L82 137L164 166L245 211L327 174L409 167L491 147L573 177L655 196L736 159L818 148L900 205L900 301L818 301L736 301L655 301L573 301L491 301L409 301L327 301L245 301L164 301L82 301L0 301Z" fill="#570d36"></path><path d="M0 236L82 191L164 232L245 211L327 205L409 226L491 241L573 210L655 196L736 232L818 194L900 239L900 301L818 301L736 301L655 301L573 301L491 301L409 301L327 301L245 301L164 301L82 301L0 301Z" fill="#6b0635"></path><path d="M0 264L82 244L164 266L245 263L327 249L409 253L491 243L573 245L655 252L736 269L818 256L900 232L900 301L818 301L736 301L655 301L573 301L491 301L409 301L327 301L245 301L164 301L82 301L0 301Z" fill="#7f0131"></path></svg>