<svg id="visual" viewBox="0 0 900 300" width="900" height="300" xmlns="http://www.w3.org/2000/svg" xmlns:xlink="http://www.w3.org/1999/xlink" version="1.1"><rect x="0" y="0" width="900" height="300" fill="#7f0131"></rect><path d="M0 103L90 77L180 137L270 132L360 119L450 145L540 139L630 78L720 82L810 100L900 145L900 301L810 301L720 301L630 301L540 301L450 301L360 301L270 301L180 301L90 301L0 301Z" fill="#c8293f"></path><path d="M0 163L90 159L180 138L270 141L360 128L450 170L540 161L630 177L720 185L810 145L900 137L900 301L810 301L720 301L630 301L540 301L450 301L360 301L270 301L180 301L90 301L0 301Z" fill="#d74141"></path><path d="M0 187L90 158L180 162L270 170L360 206L450 164L540 186L630 201L720 199L810 215L900 197L900 301L810 301L720 301L630 301L540 301L450 301L360 301L270 301L180 301L90 301L0 301Z" fill="#e55644"></path><path d="M0 197L90 207L180 245L270 196L360 222L450 224L540 223L630 230L720 242L810 209L900 242L900 301L810 301L720 301L630 301L540 301L450 301L360 301L270 301L180 301L90 301L0 301Z" fill="#f26b48"></path><path d="M0 254L90 267L180 237L270 266L360 235L450 287L540 274L630 273L720 237L810 273L900 267L900 301L810 301L720 301L630 301L540 301L450 301L360 301L270 301L180 301L90 301L0 301Z" fill="#fe7f4c"></path></svg>