<svg id="visual" viewBox="0 0 900 300" width="900" height="300" xmlns="http://www.w3.org/2000/svg" xmlns:xlink="http://www.w3.org/1999/xlink" version="1.1"><rect x="0" y="0" width="900" height="300" fill="#2f112d"></rect><path d="M0 230L113 205L225 189L338 174L450 165L563 268L675 157L788 264L900 269L900 0L788 0L675 0L563 0L450 0L338 0L225 0L113 0L0 0Z" fill="#2f112d"></path><path d="M0 144L113 203L225 204L338 114L450 146L563 116L675 124L788 217L900 144L900 0L788 0L675 0L563 0L450 0L338 0L225 0L113 0L0 0Z" fill="#421033"></path><path d="M0 158L113 86L225 88L338 167L450 89L563 115L675 125L788 107L900 146L900 0L788 0L675 0L563 0L450 0L338 0L225 0L113 0L0 0Z" fill="#570d36"></path><path d="M0 76L113 103L225 108L338 74L450 89L563 70L675 104L788 121L900 76L900 0L788 0L675 0L563 0L450 0L338 0L225 0L113 0L0 0Z" fill="#6b0635"></path><path d="M0 74L113 71L225 65L338 59L450 20L563 35L675 17L788 56L900 73L900 0L788 0L675 0L563 0L450 0L338 0L225 0L113 0L0 0Z" fill="#7f0131"></path></svg>