<svg id="visual" viewBox="0 0 900 300" width="900" height="300" xmlns="http://www.w3.org/2000/svg" xmlns:xlink="http://www.w3.org/1999/xlink" version="1.1"><rect x="0" y="0" width="900" height="300" fill="#2f112d"></rect><path d="M0 241L82 195L164 200L245 163L327 206L409 180L491 235L573 166L655 247L736 237L818 226L900 204L900 0L818 0L736 0L655 0L573 0L491 0L409 0L327 0L245 0L164 0L82 0L0 0Z" fill="#2f112d"></path><path d="M0 148L82 149L164 190L245 138L327 140L409 163L491 119L573 121L655 147L736 176L818 120L900 172L900 0L818 0L736 0L655 0L573 0L491 0L409 0L327 0L245 0L164 0L82 0L0 0Z" fill="#421033"></path><path d="M0 143L82 132L164 122L245 106L327 158L409 134L491 150L573 96L655 97L736 93L818 136L900 132L900 0L818 0L736 0L655 0L573 0L491 0L409 0L327 0L245 0L164 0L82 0L0 0Z" fill="#570d36"></path><path d="M0 108L82 93L164 59L245 78L327 103L409 60L491 63L573 68L655 108L736 62L818 77L900 108L900 0L818 0L736 0L655 0L573 0L491 0L409 0L327 0L245 0L164 0L82 0L0 0Z" fill="#6b0635"></path><path d="M0 32L82 67L164 33L245 51L327 36L409 63L491 42L573 25L655 64L736 59L818 28L900 33L900 0L818 0L736 0L655 0L573 0L491 0L409 0L327 0L245 0L164 0L82 0L0 0Z" fill="#7f0131"></path></svg>