<svg id="visual" viewBox="0 0 900 300" width="900" height="300" xmlns="http://www.w3.org/2000/svg" xmlns:xlink="http://www.w3.org/1999/xlink" version="1.1"><rect x="0" y="0" width="900" height="300" fill="#2f112d"></rect><path d="M0 195L90 221L180 161L270 166L360 179L450 153L540 159L630 220L720 216L810 198L900 153L900 0L810 0L720 0L630 0L540 0L450 0L360 0L270 0L180 0L90 0L0 0Z" fill="#7f0131"></path><path d="M0 135L90 139L180 160L270 157L360 170L450 128L540 137L630 121L720 113L810 153L900 161L900 0L810 0L720 0L630 0L540 0L450 0L360 0L270 0L180 0L90 0L0 0Z" fill="#a1253a"></path><path d="M0 111L90 140L180 136L270 128L360 92L450 134L540 112L630 97L720 99L810 83L900 101L900 0L810 0L720 0L630 0L540 0L450 0L360 0L270 0L180 0L90 0L0 0Z" fill="#c24241"></path><path d="M0 101L90 91L180 53L270 102L360 76L450 74L540 75L630 68L720 56L810 89L900 56L900 0L810 0L720 0L630 0L540 0L450 0L360 0L270 0L180 0L90 0L0 0Z" fill="#e16047"></path><path d="M0 44L90 31L180 61L270 32L360 63L450 11L540 24L630 25L720 61L810 25L900 31L900 0L810 0L720 0L630 0L540 0L450 0L360 0L270 0L180 0L90 0L0 0Z" fill="#fe7f4c"></path></svg>