<svg id="visual" viewBox="0 0 900 300" width="900" height="300" xmlns="http://www.w3.org/2000/svg" xmlns:xlink="http://www.w3.org/1999/xlink" version="1.1"><rect x="0" y="0" width="900" height="300" fill="#7f0131"></rect><path d="M0 146L90 153L180 193L270 163L360 147L450 220L540 191L630 204L720 185L810 193L900 158L900 0L810 0L720 0L630 0L540 0L450 0L360 0L270 0L180 0L90 0L0 0Z" fill="#c8293f"></path><path d="M0 140L90 116L180 166L270 127L360 126L450 111L540 135L630 133L720 175L810 129L900 155L900 0L810 0L720 0L630 0L540 0L450 0L360 0L270 0L180 0L90 0L0 0Z" fill="#a31b47"></path><path d="M0 80L90 80L180 109L270 136L360 96L450 131L540 107L630 106L720 135L810 99L900 92L900 0L810 0L720 0L630 0L540 0L450 0L360 0L270 0L180 0L90 0L0 0Z" fill="#7b1746"></path><path d="M0 103L90 63L180 46L270 55L360 80L450 89L540 93L630 46L720 45L810 101L900 96L900 0L810 0L720 0L630 0L540 0L450 0L360 0L270 0L180 0L90 0L0 0Z" fill="#53163d"></path><path d="M0 48L90 26L180 12L270 23L360 28L450 59L540 65L630 13L720 26L810 27L900 58L900 0L810 0L720 0L630 0L540 0L450 0L360 0L270 0L180 0L90 0L0 0Z" fill="#2f112d"></path></svg>