<svg id="visual" viewBox="0 0 900 300" width="900" height="300" xmlns="http://www.w3.org/2000/svg" xmlns:xlink="http://www.w3.org/1999/xlink" version="1.1"><rect x="0" y="0" width="900" height="300" fill="#2f112d"></rect><defs><linearGradient id="grad1_0" x1="66.7%" y1="0%" x2="100%" y2="100%"><stop offset="-10%" stop-color="#fe7f4c" stop-opacity="1"></stop><stop offset="110%" stop-color="#fe7f4c" stop-opacity="1"></stop></linearGradient></defs><defs><linearGradient id="grad1_1" x1="66.7%" y1="0%" x2="100%" y2="100%"><stop offset="-10%" stop-color="#fe7f4c" stop-opacity="1"></stop><stop offset="110%" stop-color="#9d3753" stop-opacity="1"></stop></linearGradient></defs><defs><linearGradient id="grad1_2" x1="66.7%" y1="0%" x2="100%" y2="100%"><stop offset="-10%" stop-color="#2f112d" stop-opacity="1"></stop><stop offset="110%" stop-color="#9d3753" stop-opacity="1"></stop></linearGradient></defs><defs><linearGradient id="grad2_0" x1="0%" y1="0%" x2="33.3%" y2="100%"><stop offset="-10%" stop-color="#fe7f4c" stop-opacity="1"></stop><stop offset="110%" stop-color="#fe7f4c" stop-opacity="1"></stop></linearGradient></defs><defs><linearGradient id="grad2_1" x1="0%" y1="0%" x2="33.3%" y2="100%"><stop offset="-10%" stop-color="#9d3753" stop-opacity="1"></stop><stop offset="110%" stop-color="#fe7f4c" stop-opacity="1"></stop></linearGradient></defs><defs><linearGradient id="grad2_2" x1="0%" y1="0%" x2="33.3%" y2="100%"><stop offset="-10%" stop-color="#9d3753" stop-opacity="1"></stop><stop offset="110%" stop-color="#2f112d" stop-opacity="1"></stop></linearGradient></defs><g transform="translate(900, 0)"><path d="M0 285C-29.7 283.3 -59.4 281.6 -88.1 271.1C-116.7 260.5 -144.3 241.2 -154.6 212.8C-164.9 184.4 -158 146.9 -172.3 125.2C-186.6 103.5 -222.1 97.6 -244.4 79.4C-266.7 61.2 -275.9 30.6 -285 0L0 0Z" fill="#642245"></path><path d="M0 190C-19.8 188.9 -39.6 187.7 -58.7 180.7C-77.8 173.7 -96.2 160.8 -103.1 141.8C-109.9 122.9 -105.3 97.9 -114.9 83.5C-124.4 69 -148.1 65.1 -162.9 52.9C-177.8 40.8 -183.9 20.4 -190 0L0 0Z" fill="#d25654"></path><path d="M0 95C-9.9 94.4 -19.8 93.9 -29.4 90.4C-38.9 86.8 -48.1 80.4 -51.5 70.9C-55 61.5 -52.7 49 -57.4 41.7C-62.2 34.5 -74 32.5 -81.5 26.5C-88.9 20.4 -92 10.2 -95 0L0 0Z" fill="#fe7f4c"></path></g><g transform="translate(0, 300)"><path d="M0 -285C21.1 -257.1 42.2 -229.1 73.2 -225.4C104.2 -221.7 145.2 -242.2 167.5 -230.6C189.9 -218.9 193.7 -175.2 198.2 -144C202.7 -112.8 208 -94.2 222.5 -72.3C237.1 -50.4 261.1 -25.2 285 0L0 0Z" fill="#642245"></path><path d="M0 -190C14.1 -171.4 28.2 -152.7 48.8 -150.3C69.5 -147.8 96.8 -161.5 111.7 -153.7C126.6 -146 129.1 -116.8 132.1 -96C135.2 -75.2 138.6 -62.8 148.4 -48.2C158.1 -33.6 174 -16.8 190 0L0 0Z" fill="#d25654"></path><path d="M0 -95C7 -85.7 14.1 -76.4 24.4 -75.1C34.7 -73.9 48.4 -80.7 55.8 -76.9C63.3 -73 64.6 -58.4 66.1 -48C67.6 -37.6 69.3 -31.4 74.2 -24.1C79 -16.8 87 -8.4 95 0L0 0Z" fill="#fe7f4c"></path></g></svg>